<svg width="24" height="24" viewBox="0 0 24 24" fill="none" xmlns="http://www.w3.org/2000/svg">
<g id="Iconly/Light-Outline/Paper Plus">
<g id="Paper Plus">
<path id="Fill 1" fill-rule="evenodd" clip-rule="evenodd" d="M7.57266 3.51172C5.91466 3.51172 4.53966 4.85372 4.50066 6.50872V17.3397C4.47166 18.9867 5.77866 20.3387 7.41366 20.3667L7.56066 20.3657H15.5727C17.2147 20.3477 18.5537 18.9907 18.5517 17.3407V8.34172L13.9177 3.51172H7.58466H7.57266ZM7.39966 21.8667C4.92666 21.8237 2.95866 19.7867 3.00066 17.3267V6.49072C3.05766 4.00972 5.10666 2.01172 7.56966 2.01172H7.58766H14.2367C14.4407 2.01172 14.6357 2.09472 14.7777 2.24172L19.8437 7.52072C19.9767 7.65972 20.0517 7.84672 20.0517 8.03972V17.3397C20.0557 19.8087 18.0497 21.8397 15.5807 21.8657L7.39966 21.8667Z" fill="white"/>
<path id="Fill 3" fill-rule="evenodd" clip-rule="evenodd" d="M19.2976 8.984H16.5436C14.7126 8.979 13.2246 7.487 13.2246 5.659V2.75C13.2246 2.336 13.5606 2 13.9746 2C14.3886 2 14.7246 2.336 14.7246 2.75V5.659C14.7246 6.663 15.5416 7.481 16.5456 7.484H19.2976C19.7116 7.484 20.0476 7.82 20.0476 8.234C20.0476 8.648 19.7116 8.984 19.2976 8.984Z" fill="white"/>
<path id="Fill 5" fill-rule="evenodd" clip-rule="evenodd" d="M13.7935 13.6641H8.89453C8.48053 13.6641 8.14453 13.3281 8.14453 12.9141C8.14453 12.5001 8.48053 12.1641 8.89453 12.1641H13.7935C14.2075 12.1641 14.5435 12.5001 14.5435 12.9141C14.5435 13.3281 14.2075 13.6641 13.7935 13.6641Z" fill="white"/>
<path id="Fill 7" fill-rule="evenodd" clip-rule="evenodd" d="M11.3438 16.1148C10.9297 16.1148 10.5938 15.7788 10.5938 15.3648V10.4648C10.5938 10.0508 10.9297 9.71484 11.3438 9.71484C11.7578 9.71484 12.0938 10.0508 12.0938 10.4648V15.3648C12.0938 15.7788 11.7578 16.1148 11.3438 16.1148Z" fill="white"/>
</g>
</g>
</svg>
