<svg width="24" height="24" viewBox="0 0 24 24" fill="none" xmlns="http://www.w3.org/2000/svg">
<g id="Iconly/Light-Outline/Calendar">
<g id="Calendar">
<path id="Fill 1" fill-rule="evenodd" clip-rule="evenodd" d="M20.6668 9.9043H2.84277C2.42877 9.9043 2.09277 9.5683 2.09277 9.1543C2.09277 8.7403 2.42877 8.4043 2.84277 8.4043H20.6668C21.0808 8.4043 21.4168 8.7403 21.4168 9.1543C21.4168 9.5683 21.0808 9.9043 20.6668 9.9043Z" fill="white"/>
<path id="Fill 3" fill-rule="evenodd" clip-rule="evenodd" d="M16.2013 13.8105C15.7873 13.8105 15.4473 13.4745 15.4473 13.0605C15.4473 12.6465 15.7783 12.3105 16.1923 12.3105H16.2013C16.6153 12.3105 16.9513 12.6465 16.9513 13.0605C16.9513 13.4745 16.6153 13.8105 16.2013 13.8105Z" fill="white"/>
<path id="Fill 5" fill-rule="evenodd" clip-rule="evenodd" d="M11.7638 13.8105C11.3498 13.8105 11.0098 13.4745 11.0098 13.0605C11.0098 12.6465 11.3408 12.3105 11.7548 12.3105H11.7638C12.1778 12.3105 12.5138 12.6465 12.5138 13.0605C12.5138 13.4745 12.1778 13.8105 11.7638 13.8105Z" fill="white"/>
<path id="Fill 7" fill-rule="evenodd" clip-rule="evenodd" d="M7.31652 13.8105C6.90252 13.8105 6.56152 13.4745 6.56152 13.0605C6.56152 12.6465 6.89352 12.3105 7.30752 12.3105H7.31652C7.73052 12.3105 8.06652 12.6465 8.06652 13.0605C8.06652 13.4745 7.73052 13.8105 7.31652 13.8105Z" fill="white"/>
<path id="Fill 9" fill-rule="evenodd" clip-rule="evenodd" d="M16.2013 17.6973C15.7873 17.6973 15.4473 17.3613 15.4473 16.9473C15.4473 16.5333 15.7783 16.1973 16.1923 16.1973H16.2013C16.6153 16.1973 16.9513 16.5333 16.9513 16.9473C16.9513 17.3613 16.6153 17.6973 16.2013 17.6973Z" fill="white"/>
<path id="Fill 11" fill-rule="evenodd" clip-rule="evenodd" d="M11.7638 17.6973C11.3498 17.6973 11.0098 17.3613 11.0098 16.9473C11.0098 16.5333 11.3408 16.1973 11.7548 16.1973H11.7638C12.1778 16.1973 12.5138 16.5333 12.5138 16.9473C12.5138 17.3613 12.1778 17.6973 11.7638 17.6973Z" fill="white"/>
<path id="Fill 13" fill-rule="evenodd" clip-rule="evenodd" d="M7.31652 17.6973C6.90252 17.6973 6.56152 17.3613 6.56152 16.9473C6.56152 16.5333 6.89352 16.1973 7.30752 16.1973H7.31652C7.73052 16.1973 8.06652 16.5333 8.06652 16.9473C8.06652 17.3613 7.73052 17.6973 7.31652 17.6973Z" fill="white"/>
<path id="Fill 15" fill-rule="evenodd" clip-rule="evenodd" d="M15.7939 5.791C15.3799 5.791 15.0439 5.455 15.0439 5.041V1.75C15.0439 1.336 15.3799 1 15.7939 1C16.2079 1 16.5439 1.336 16.5439 1.75V5.041C16.5439 5.455 16.2079 5.791 15.7939 5.791Z" fill="white"/>
<path id="Fill 17" fill-rule="evenodd" clip-rule="evenodd" d="M7.71484 5.791C7.30084 5.791 6.96484 5.455 6.96484 5.041V1.75C6.96484 1.336 7.30084 1 7.71484 1C8.12884 1 8.46484 1.336 8.46484 1.75V5.041C8.46484 5.455 8.12884 5.791 7.71484 5.791Z" fill="white"/>
<g id="Group 21">
<mask id="mask0_623_1898" style="mask-type:alpha" maskUnits="userSpaceOnUse" x="2" y="2" width="20" height="21">
<path id="Clip 20" fill-rule="evenodd" clip-rule="evenodd" d="M2 2.57812H21.5V22.499H2V2.57812Z" fill="white"/>
</mask>
<g mask="url(#mask0_623_1898)">
<path id="Fill 19" fill-rule="evenodd" clip-rule="evenodd" d="M7.521 4.07812C4.928 4.07812 3.5 5.46113 3.5 7.97213V17.0211C3.5 19.5871 4.928 20.9991 7.521 20.9991H15.979C18.572 20.9991 20 19.6131 20 17.0971V7.97213C20.004 6.73712 19.672 5.77713 19.013 5.11713C18.335 4.43712 17.29 4.07812 15.988 4.07812H7.521ZM15.979 22.4991H7.521C4.116 22.4991 2 20.4001 2 17.0211V7.97213C2 4.64412 4.116 2.57812 7.521 2.57812H15.988C17.697 2.57812 19.11 3.09012 20.075 4.05712C21.012 4.99813 21.505 6.35112 21.5 7.97412V17.0971C21.5 20.4291 19.384 22.4991 15.979 22.4991Z" fill="white"/>
</g>
</g>
</g>
</g>
</svg>
