<svg width="40" height="40" viewBox="0 0 40 40" fill="none" xmlns="http://www.w3.org/2000/svg">
<circle cx="20" cy="20" r="20" fill="#9B80FF"/>
<path d="M20.2744 12C20.6541 12 20.9679 12.2822 21.0176 12.6482L21.0244 12.75V27.75C21.0244 28.1642 20.6886 28.5 20.2744 28.5C19.8947 28.5 19.5809 28.2178 19.5313 27.8518L19.5244 27.75V12.75C19.5244 12.3358 19.8602 12 20.2744 12Z" fill="white"/>
<path d="M25.7675 21.172C26.0598 20.8785 26.5347 20.8774 26.8282 21.1697C27.095 21.4354 27.1201 21.852 26.9029 22.1461L26.8305 22.2304L20.8065 28.2804C20.54 28.548 20.1219 28.5723 19.8278 28.3534L19.7436 28.2804L13.7186 22.2304C13.4263 21.9369 13.4273 21.462 13.7208 21.1697C13.9876 20.904 14.4043 20.8807 14.6975 21.0991L14.7814 21.1719L20.2753 26.688L25.7675 21.172Z" fill="white"/>
</svg>
