<svg width="24" height="24" viewBox="0 0 24 24" fill="none" xmlns="http://www.w3.org/2000/svg">
<g id="Iconly/Light-Outline/Edit Square">
<g id="Edit Square">
<path id="Fill 1" fill-rule="evenodd" clip-rule="evenodd" d="M16.577 22.3691H7.753C4.312 22.3691 2 19.9541 2 16.3601V8.04611C2 4.45211 4.312 2.03711 7.753 2.03711H11.492C11.906 2.03711 12.242 2.37311 12.242 2.78711C12.242 3.20111 11.906 3.53711 11.492 3.53711H7.753C5.169 3.53711 3.5 5.30711 3.5 8.04611V16.3601C3.5 19.0991 5.169 20.8691 7.753 20.8691H16.577C19.161 20.8691 20.831 19.0991 20.831 16.3601V12.3321C20.831 11.9181 21.167 11.5821 21.581 11.5821C21.995 11.5821 22.331 11.9181 22.331 12.3321V16.3601C22.331 19.9541 20.018 22.3691 16.577 22.3691Z" fill="#6F6C90"/>
<path id="Fill 3" fill-rule="evenodd" clip-rule="evenodd" d="M8.86786 15.428H11.8449C12.2249 15.428 12.5809 15.281 12.8499 15.012L20.3589 7.503C20.6669 7.195 20.8369 6.785 20.8369 6.349C20.8369 5.912 20.6669 5.501 20.3589 5.193L19.1419 3.976C18.5049 3.341 17.4689 3.341 16.8309 3.976L9.35786 11.449C9.09886 11.708 8.95186 12.052 8.94286 12.417L8.86786 15.428ZM11.8449 16.928H8.09886C7.89686 16.928 7.70286 16.846 7.56186 16.701C7.42086 16.557 7.34386 16.362 7.34886 16.159L7.44286 12.38C7.46186 11.628 7.76486 10.921 8.29686 10.388H8.29786L15.7709 2.915C16.9929 1.695 18.9799 1.695 20.2019 2.915L21.4189 4.132C22.0119 4.724 22.3379 5.511 22.3369 6.349C22.3369 7.187 22.0109 7.973 21.4189 8.564L13.9099 16.073C13.3589 16.624 12.6249 16.928 11.8449 16.928Z" fill="#6F6C90"/>
<path id="Fill 5" fill-rule="evenodd" clip-rule="evenodd" d="M19.7308 9.91636C19.5388 9.91636 19.3468 9.84336 19.2008 9.69636L14.6348 5.13036C14.3418 4.83736 14.3418 4.36236 14.6348 4.06936C14.9278 3.77636 15.4018 3.77636 15.6948 4.06936L20.2608 8.63636C20.5538 8.92936 20.5538 9.40336 20.2608 9.69636C20.1148 9.84336 19.9228 9.91636 19.7308 9.91636Z" fill="#6F6C90"/>
</g>
</g>
</svg>
