<svg width="40" height="40" viewBox="0 0 40 40" fill="none" xmlns="http://www.w3.org/2000/svg">
<circle cx="20" cy="20" r="20" fill="#EFF0F7"/>
<mask id="mask0_623_1847" style="mask-type:alpha" maskUnits="userSpaceOnUse" x="11" y="10" width="18" height="20">
<path fill-rule="evenodd" clip-rule="evenodd" d="M11 10.0117H28.0527V29.8652H11V10.0117Z" fill="white"/>
</mask>
<g mask="url(#mask0_623_1847)">
<path fill-rule="evenodd" clip-rule="evenodd" d="M15.5731 11.5117C13.9161 11.5117 12.5401 12.8537 12.5011 14.5087V25.2037C12.4641 26.9167 13.8141 28.3277 15.5101 28.3657H23.5741C25.2431 28.2967 26.5651 26.9097 26.5531 25.2097V16.3397L21.9181 11.5117H15.5851H15.5731ZM15.5851 29.8657H15.4761C12.9541 29.8087 10.9461 27.7107 11.0011 25.1877V14.4907C11.0591 12.0097 13.1081 10.0117 15.5711 10.0117H15.5881H22.2381C22.4421 10.0117 22.6371 10.0947 22.7791 10.2417L27.8441 15.5187C27.9781 15.6577 28.0531 15.8447 28.0531 16.0377V25.2037C28.0711 27.7127 26.1171 29.7627 23.6041 29.8647L15.5851 29.8657Z" fill="#6F6C90"/>
</g>
<path fill-rule="evenodd" clip-rule="evenodd" d="M27.2986 16.984H24.5436C22.7136 16.979 21.2256 15.487 21.2256 13.659V10.75C21.2256 10.336 21.5616 10 21.9756 10C22.3896 10 22.7256 10.336 22.7256 10.75V13.659C22.7256 14.663 23.5426 15.481 24.5456 15.484H27.2986C27.7126 15.484 28.0486 15.82 28.0486 16.234C28.0486 16.648 27.7126 16.984 27.2986 16.984Z" fill="#6F6C90"/>
<path fill-rule="evenodd" clip-rule="evenodd" d="M21.7887 24.1074H16.3887C15.9747 24.1074 15.6387 23.7714 15.6387 23.3574C15.6387 22.9434 15.9747 22.6074 16.3887 22.6074H21.7887C22.2027 22.6074 22.5387 22.9434 22.5387 23.3574C22.5387 23.7714 22.2027 24.1074 21.7887 24.1074Z" fill="#6F6C90"/>
<path fill-rule="evenodd" clip-rule="evenodd" d="M19.7437 20.3555H16.3877C15.9737 20.3555 15.6377 20.0195 15.6377 19.6055C15.6377 19.1915 15.9737 18.8555 16.3877 18.8555H19.7437C20.1577 18.8555 20.4937 19.1915 20.4937 19.6055C20.4937 20.0195 20.1577 20.3555 19.7437 20.3555Z" fill="#6F6C90"/>
</svg>
