<svg width="24" height="24" viewBox="0 0 24 24" fill="none" xmlns="http://www.w3.org/2000/svg">
<g id="Iconly/Light-Outline/Paper Upload">
<g id="Paper Upload">
<g id="Group 3">
<mask id="mask0_623_1817" style="mask-type:alpha" maskUnits="userSpaceOnUse" x="3" y="2" width="18" height="20">
<path id="Clip 2" fill-rule="evenodd" clip-rule="evenodd" d="M3 2.01172H20.0522V21.8652H3V2.01172Z" fill="white"/>
</mask>
<g mask="url(#mask0_623_1817)">
<path id="Fill 1" fill-rule="evenodd" clip-rule="evenodd" d="M7.57307 3.51172C5.91607 3.51172 4.54007 4.85372 4.50107 6.50872V17.2277C4.46507 18.9287 5.80507 20.3287 7.49007 20.3657H15.5731C17.2421 20.3057 18.5631 18.9287 18.5521 17.2327V8.33972L13.9181 3.51172H7.58507H7.57307ZM7.58507 21.8657H7.45907C4.94707 21.8117 2.94707 19.7237 3.00107 17.2117V6.49072C3.06007 4.00972 5.10807 2.01172 7.57007 2.01172H7.58807H14.2371C14.4411 2.01172 14.6361 2.09472 14.7781 2.24172L19.8441 7.51872C19.9771 7.65772 20.0521 7.84472 20.0521 8.03772V17.2277C20.0681 19.7367 18.1121 21.7757 15.5991 21.8657H7.58507Z" fill="#6F6C90"/>
</g>
</g>
<path id="Fill 4" fill-rule="evenodd" clip-rule="evenodd" d="M19.2976 8.984H16.5436C14.7126 8.979 13.2256 7.487 13.2256 5.659V2.75C13.2256 2.336 13.5616 2 13.9756 2C14.3896 2 14.7256 2.336 14.7256 2.75V5.659C14.7256 6.663 15.5416 7.481 16.5456 7.484H19.2976C19.7116 7.484 20.0476 7.82 20.0476 8.234C20.0476 8.648 19.7116 8.984 19.2976 8.984Z" fill="#6F6C90"/>
<path id="Fill 6" fill-rule="evenodd" clip-rule="evenodd" d="M11.1416 16.6992C10.7276 16.6992 10.3916 16.3632 10.3916 15.9492V9.9082C10.3916 9.4942 10.7276 9.1582 11.1416 9.1582C11.5556 9.1582 11.8916 9.4942 11.8916 9.9082V15.9492C11.8916 16.3632 11.5556 16.6992 11.1416 16.6992Z" fill="#6F6C90"/>
<path id="Fill 8" fill-rule="evenodd" clip-rule="evenodd" d="M8.79663 13.0152C8.60563 13.0152 8.41363 12.9422 8.26763 12.7962C7.97463 12.5042 7.97263 12.0302 8.26563 11.7362L10.6096 9.38022C10.8916 9.09722 11.3916 9.09722 11.6726 9.38022L14.0186 11.7362C14.3106 12.0302 14.3096 12.5042 14.0166 12.7962C13.7226 13.0882 13.2476 13.0882 12.9556 12.7942L11.1416 10.9722L9.32763 12.7942C9.18163 12.9422 8.98863 13.0152 8.79663 13.0152Z" fill="#6F6C90"/>
</g>
</g>
</svg>
